HIERARCHY
ROOT root
{
	OFFSET 0.543951 0.670295 -0.566562
	CHANNELS 6 Xposition Yposition Zposition Xrotation Yrotation Zrotation
	JOINT 1
	{
		OFFSET 0.00360347 0.0370251 0.0233205
		CHANNELS 3 Xrotation Yrotation Zrotation
		JOINT 2
		{
			OFFSET -0.00673153 0.197777 -0.00804797
			CHANNELS 3 Xrotation Yrotation Zrotation
			JOINT 3
			{
				OFFSET -0.021017 0.101785 -0.0183303
				CHANNELS 3 Xrotation Yrotation Zrotation
				End Site
				{
					OFFSET 0 0 0
				}
			}
			JOINT 4
			{
				OFFSET -0.10035 -0.0643991 0.0250991
				CHANNELS 3 Xrotation Yrotation Zrotation
				JOINT 5
				{
					OFFSET -0.0148135 -0.141234 0.0126319
					CHANNELS 3 Xrotation Yrotation Zrotation
					JOINT 6
					{
						OFFSET -0.0187255 -0.122513 -0.0324719
						CHANNELS 3 Xrotation Yrotation Zrotation
						JOINT 7
						{
							OFFSET 0.00332734 -0.0392637 -0.01177
							CHANNELS 3 Xrotation Yrotation Zrotation
							End Site
							{
								OFFSET 0 0 0
							}
						}
					}
				}
			}
			JOINT 8
			{
				OFFSET 0.0843178 -0.0619084 -0.00882203
				CHANNELS 3 Xrotation Yrotation Zrotation
				JOINT 9
				{
					OFFSET 0.0430307 -0.144317 0.0113802
					CHANNELS 3 Xrotation Yrotation Zrotation
					JOINT 10
					{
						OFFSET 0.0110223 -0.123546 -0.0319613
						CHANNELS 3 Xrotation Yrotation Zrotation
						JOINT 11
						{
							OFFSET 0.00253407 -0.0278432 -0.0128899
							CHANNELS 3 Xrotation Yrotation Zrotation
							End Site
							{
								OFFSET 0 0 0
							}
						}
					}
				}
			}
		}
	}
	JOINT 12
	{
		OFFSET -0.0409909 -0.0425845 0.00342011
		CHANNELS 3 Xrotation Yrotation Zrotation
		JOINT 13
		{
			OFFSET -0.00433525 -0.247377 0.0309073
			CHANNELS 3 Xrotation Yrotation Zrotation
			JOINT 14
			{
				OFFSET 0.00457186 -0.196922 0.00378244
				CHANNELS 3 Xrotation Yrotation Zrotation
				JOINT 15
				{
					OFFSET -0.0148514 -0.045471 -0.0113857
					CHANNELS 3 Xrotation Yrotation Zrotation
					End Site
					{
						OFFSET 0 0 0
					}
				}
			}
		}
	}
	JOINT 16
	{
		OFFSET 0.0421098 -0.0414641 -0.0115724
		CHANNELS 3 Xrotation Yrotation Zrotation
		JOINT 17
		{
			OFFSET 0.0243408 -0.253474 0.0202791
			CHANNELS 3 Xrotation Yrotation Zrotation
			JOINT 18
			{
				OFFSET 0.01532 -0.18353 0.0210422
				CHANNELS 3 Xrotation Yrotation Zrotation
				JOINT 19
				{
					OFFSET -0.00786796 -0.0224152 -0.0452959
					CHANNELS 3 Xrotation Yrotation Zrotation
					End Site
					{
						OFFSET 0 0 0
					}
				}
			}
		}
	}
}
MOTION
Frames: 21
Frame Time: 0.0333333
0.546649 0.66772 -0.577135 0.122565 -2.98111 -0.0692125 0.641426 -2.97796 0.0538462 3.13319 -0.172227 3.06825 2.75324 -0.133096 2.9164 0.00249688 -2.98586 -2.14779 0.110191 2.73394 -2.50215 1.20741 2.399 3.13064 1.07725 2.39872 -3.1005 0.00270998 -2.95115 2.11244 -0 0 2.94573 1.14258 -2.20988 3.1258 1.80945 -2.42999 -2.45597 0.122566 -2.98111 -2.39959 3.11655 -0.148685 0.00552446 2.98105 -0.14808 -0.0933017 0.340481 -2.96711 -2.94426 0.122566 -2.98111 2.29568 3.09913 -0.147073 -0.128235 2.92965 -0.123404 -0.00924402 0.638728 -3.05303 3.11328
0.547399 0.665854 -0.578228 0.123308 -2.98405 -0.0673402 0.64594 -2.98528 0.0563196 3.12838 -0.165268 3.07547 2.76068 -0.130759 2.91525 3.13967 -0.148329 0.989577 0.104269 2.65441 -2.53776 1.06909 2.38534 -3.13493 1.00393 2.38541 -3.11777 3.14013 -0.183992 -1.01653 -0 0 -2.94573 0.899122 -2.14278 3.02234 1.75699 -2.31847 -2.49032 0.123308 -2.98405 -2.39571 3.11802 -0.146108 0.00928377 2.97419 -0.145938 -0.0938251 0.336453 -2.9687 -2.94329 0.123308 -2.98405 2.29602 3.11126 -0.12426 -0.127956 2.91635 -0.125326 -0.00667153 0.48313 -3.04187 3.06189
0.548147 0.664213 -0.579134 0.122489 -2.98704 -0.064439 0.647252 -2.99683 0.0570731 3.11913 -0.152655 3.08457 2.77191 -0.12437 2.91549 3.13111 -0.134777 0.986171 0.167036 2.63907 -2.62452 0.883284 2.44259 -3.04345 0.934498 2.44434 3.08057 3.1318 -0.172437 -1.00625 -0 0 -2.55401 0.793425 -2.11935 2.97514 1.56854 -2.25225 -2.5443 0.122489 -2.98704 -2.39096 3.12013 -0.143812 0.0129975 2.96818 -0.144125 -0.0944249 0.333179 -2.96996 -2.94314 0.122489 -2.98704 2.29668 3.11975 -0.120551 -0.127541 2.90575 -0.122377 -0.00444918 0.371869 -3.03843 3.02409
0.548937 0.662719 -0.579924 0.120016 -2.99013 -0.0614477 0.644878 -3.01013 0.0577988 3.10418 -0.138072 3.09693 2.78957 -0.117628 2.91158 3.11546 -0.121234 0.98511 0.119825 2.53997 -2.63066 0.739353 2.37985 -3.02991 0.90978 2.37384 3.13125 3.11633 -0.156726 -0.997434 -0 0 -2.16229 0.720892 -2.08405 2.96335 1.28911 -2.15356 -2.67262 0.120016 -2.99013 -2.38514 3.12276 -0.141598 0.016859 2.96257 -0.142471 -0.09526 0.330046 -2.97097 -2.94302 0.120016 -2.99013 2.29737 3.12783 -0.117053 -0.127301 2.89655 -0.119781 -0.00189411 0.299105 -3.038 2.99833
0.550123 0.661131 -0.58078 0.115247 -2.99455 -0.0585762 0.637026 -3.0273 0.0567527 3.09087 -0.119442 3.10806 2.80112 -0.104971 2.912 3.10572 -0.0975988 0.977213 0.155838 2.59801 -2.70985 0.637681 2.47608 -2.98787 0.784467 2.47445 3.11026 3.10684 -0.143391 -0.985543 -0 0 -1.77057 0.641452 -1.99589 2.98054 1.21411 -2.02617 -2.76116 0.115247 -2.99455 -2.37789 3.12476 -0.138125 0.0220648 2.95801 -0.139861 -0.0958969 0.327033 -2.97291 -2.94259 0.115247 -2.99455 2.29861 3.13467 -0.112818 -0.125974 2.8894 -0.116397 0.000517981 0.82312 -3.08651 -3.12997
0.551772 0.659588 -0.581725 0.108252 -3.00081 -0.0557208 0.623315 -3.0386 0.0569678 3.07832 -0.107428 3.11874 2.80381 -0.0972647 2.9148 3.09502 -0.0830258 0.973409 0.391988 -3.03503 -2.86519 0.645064 -3.10947 -2.97092 0.714688 -3.11084 -3.12091 3.09656 -0.134079 -0.972864 -0 0 -1.37885 0.59054 -1.97009 2.98278 0.716705 -1.96907 -3.10438 0.108252 -3.00081 -2.37092 3.12601 -0.13289 0.0288156 2.95444 -0.135838 -0.0961304 0.323613 -2.9763 -2.94236 0.108252 -3.00081 2.30066 3.14026 -0.107506 -0.122528 2.88436 -0.111759 0.00255139 1.06808 -3.11681 -3.05613
0.553867 0.658129 -0.582823 0.0995588 -3.01007 -0.0533082 0.603046 -3.04502 0.0588623 3.06859 -0.100987 3.12592 2.80016 -0.0932538 2.92873 3.08657 -0.0748737 0.970358 0.356475 -3.04322 -2.90701 0.568251 -3.09562 -2.96825 0.535407 -3.09579 3.13551 3.08826 -0.129321 -0.965896 -0 0 -0.987134 0.411725 -1.90332 2.90794 0.479913 -1.898 2.9373 0.0995583 -3.01007 -2.36649 3.12645 -0.124608 0.0375024 2.95101 -0.129211 -0.095785 0.31964 -2.98225 -2.94212 0.0995583 -3.01007 2.30379 0.00342304 -3.04191 3.02438 2.8808 -0.104431 0.00441036 1.15163 -3.12944 -3.03281
0.556493 0.656783 -0.584239 0.0890973 -3.02077 -0.0513342 0.576156 -3.05281 0.059431 3.06287 -0.0904541 3.12985 2.80001 -0.0843213 2.94091 3.0842 -0.0600639 0.960961 0.299552 -3.05318 -2.93989 0.489179 -3.09327 -2.97178 0.457239 -3.09297 -3.13298 3.08573 -0.123194 -0.96264 -0 0 -0.595414 0.306534 -1.90399 2.85827 0.146745 -1.9229 2.72839 0.0890973 -3.02077 -2.36377 3.12681 -0.11488 0.0480645 2.94646 -0.1216 -0.0942827 0.315918 -2.98959 -2.94218 0.0890974 -3.02077 2.3084 0.00683319 -3.0511 3.03095 2.87789 -0.0957551 0.00677309 1.19529 -3.13764 -3.02133
0.559903 0.65566 -0.58616 0.0770539 -3.03193 -0.0479129 0.542613 -3.05309 0.0623027 3.06038 -0.0896409 3.13112 2.80188 -0.0840079 2.94763 3.08098 -0.0602973 0.960855 0.246348 -3.05334 -2.97214 0.435158 -3.08697 -2.97365 0.399908 -3.08638 -3.12574 3.08234 -0.121146 -0.963495 -0 0 -0.203694 0.09824 -1.88058 2.73481 0.0229738 -1.89176 2.65942 0.0770538 -3.03193 -2.36066 3.12832 -0.104921 0.0589935 2.93852 -0.114122 -0.089935 0.314321 -2.99807 -2.94236 0.0770538 -3.03193 2.31235 0.00779603 -3.0602 3.04133 2.87563 -0.0872471 0.0097068 1.22348 3.13899 -3.01429
0.563894 0.654813 -0.588554 0.0652762 -3.04043 -0.0442974 0.506897 -3.05077 0.0651996 3.06057 -0.0911523 3.1321 2.80552 -0.0858329 2.9459 3.07827 -0.0657636 0.964122 0.191921 -3.05125 -2.9924 0.329547 -3.07267 -3.0135 0.293547 -3.07265 3.14092 3.07968 -0.11852 -0.962619 -0 0 0.188025 3.13414 -1.23513 -0.455208 0.0737109 -1.89395 2.73545 0.0652757 -3.04043 -2.35733 3.13188 -0.0997653 0.0682447 2.92831 -0.0851431 -0.081193 0.309368 -3.02737 -2.94313 0.0652758 -3.04043 2.31609 0.00576025 -3.06763 3.05233 2.87374 -0.0811841 0.01563 0.558474 -3.09802 3.06563
0.568621 0.654489 -0.591518 0.0563134 -3.04377 -0.0413452 0.474419 -3.04633 0.0628115 3.06411 -0.0946813 3.12899 2.80708 -0.0883967 2.94885 3.07732 -0.0755064 0.969572 0.139205 -3.04641 -3.00318 0.275095 -3.06611 -3.03362 0.271191 -3.06608 -3.13511 3.07849 -0.115456 -0.967084 -0 0 0.579745 0.348745 -2.967 2.97946 0.361323 -2.96554 3.02585 0.0563133 -3.04377 -2.35629 3.13761 -0.0953743 0.0765887 2.91108 -0.0821808 -0.0682411 0.309181 -3.03609 -2.94309 0.0563133 -3.04377 2.3163 3.14135 -0.0694309 -0.0777866 2.87168 -0.0794705 0.026998 0.150401 -3.08002 2.95009
0.573396 0.654316 -0.594812 0.0519456 -3.04232 -0.0381276 0.449015 -3.04253 0.0570774 3.06943 -0.0975704 3.12473 2.81036 -0.0900303 2.94854 3.07763 -0.0855335 0.974745 0.0690423 -3.04263 -3.01254 0.238373 -3.06584 -3.04415 0.210064 -3.06692 3.10229 3.07848 -0.110705 -0.969431 -0 0 0.971465 0.300503 -2.95924 2.97527 0.354351 -2.95446 3.05636 0.0519457 -3.04232 -2.35698 0.00738193 -3.0482 -3.05997 2.88586 -0.0831208 -0.0506016 0.309852 -3.04433 -2.9426 0.0519458 -3.04232 2.31576 3.13191 -0.0689389 -0.0672316 2.87005 -0.082063 0.0400016 3.13352 -0.0688422 -0.227068
0.577931 0.654217 -0.598177 0.0493115 -3.03733 -0.0352976 0.428 -3.03882 0.0516394 3.07388 -0.101087 3.12119 2.81514 -0.0925431 2.94676 3.07598 -0.0979607 0.981055 3.12183 -0.101945 0.120943 0.206293 -3.0694 -3.06253 0.279382 -3.06935 -3.13974 3.07624 -0.104523 -0.970452 -0 0 1.36318 0.239901 -2.9615 2.97193 0.399445 -2.95073 3.08793 0.0493115 -3.03733 -2.35729 0.0356943 -3.0515 -3.06143 2.84269 -0.0860298 -0.0269352 0.308399 -3.05555 -2.94024 0.0493113 -3.03733 2.3145 3.12159 -0.0715734 -0.0582464 2.86818 -0.0877493 0.0534692 3.05031 -0.0766388 -0.241361
0.581775 0.654143 -0.601521 0.0504331 -3.03145 -0.0323723 0.414272 -3.03469 0.0461309 3.07936 -0.105507 3.11727 2.81736 -0.0956564 2.94631 3.07613 -0.11034 0.985066 3.05707 -0.104942 0.119541 0.154578 -3.068 -3.07469 0.315515 -3.0696 -3.12577 3.07571 -0.100185 -0.97222 -0 0 1.7549 0.201681 -2.95299 2.97377 0.38739 -2.94529 3.11732 0.0504336 -3.03145 -2.35903 0.083631 -3.06318 -3.07359 2.78463 -0.0884031 0.00371967 0.285217 -3.07296 -2.92716 0.0504337 -3.03145 2.31418 3.112 -0.0742581 -0.0546916 2.86478 -0.0939749 0.0690173 0.722007 3.13423 3.08113
0.585012 0.654215 -0.604705 0.053878 -3.02439 -0.0294046 0.407063 -3.03037 0.0419727 3.08463 -0.110549 3.11446 2.81514 -0.0993954 2.94634 3.07636 -0.123054 0.98945 2.99163 -0.107569 0.119804 0.131163 -3.07155 -3.0807 0.250169 -3.06895 3.12396 3.0752 -0.0967598 -0.974063 -0 0 2.14662 0.176725 -2.94228 2.98286 0.351059 -2.93736 3.13036 0.0538779 -3.02439 -2.36002 0.142015 -3.07246 -3.0829 2.73832 -0.0923152 0.0190292 0.212786 -3.07717 -2.88484 0.0538779 -3.02439 2.3144 3.10324 -0.0783347 -0.052502 2.86045 -0.101112 0.0825265 0.41784 -3.11743 3.00283
0.587464 0.654436 -0.607444 0.0555151 -3.01497 -0.0270498 0.400586 -3.02658 0.0408519 3.08716 -0.115548 3.11441 2.81706 -0.104177 2.94132 3.07314 -0.136998 0.99462 2.88819 0.13346 0.120105 0.127045 2.97332 -3.07936 0.0983959 2.9717 3.08667 3.07103 -0.0919117 -0.975535 -0 0 2.53834 0.154402 -2.93457 2.99143 0.335907 -2.93061 3.13823 0.0555152 -3.01497 -2.35903 0.192971 -3.06894 -3.09048 2.73305 -0.101284 0.0193556 0.150835 -3.06592 -2.83367 0.0555151 -3.01497 2.31507 3.09694 -0.0847073 -0.0525494 2.85545 -0.110356 0.0939814 0.295121 -3.10108 2.97982
0.589281 0.654752 -0.609827 0.0576105 -3.00304 -0.0244914 0.395642 -3.02147 0.0420863 3.08845 -0.122343 3.11586 2.81641 -0.11101 2.9363 3.06913 -0.152366 1.00204 2.82043 0.0985378 0.11649 0.129904 3.00227 -3.07955 0.128737 3.00223 3.10477 3.066 -0.0892907 -0.977913 -0 0 2.93006 3.1317 -0.993078 -0.22642 0.293853 -2.12764 -3.13949 0.0576109 -3.00304 -2.35697 0.232973 -3.06112 -3.09692 2.73654 -0.113261 0.0178881 0.31019 -3.06766 -2.84112 0.0576108 -3.00304 2.31634 3.09165 -0.0938283 -0.0537746 2.85043 -0.121991 0.103274 0.190874 -3.08144 2.96284
0.590636 0.655187 -0.612171 0.060675 -2.9895 -0.0205719 0.392768 -3.01438 0.0451369 3.08979 -0.132187 3.11782 2.81587 -0.120925 2.93145 3.06611 -0.169684 1.01071 2.77305 0.0845832 0.119572 0.129384 3.01027 -3.07681 0.154771 3.01098 3.11193 3.06233 -0.0912361 -0.984416 -0 0 -2.9614 0.0330168 -2.17377 2.96282 0.258439 -2.1622 -3.13896 0.0606745 -2.9895 -2.35414 0.270987 -3.03963 -3.10279 2.78422 -0.130876 0.00703739 0.373752 -3.04861 -2.86028 0.0606744 -2.9895 2.31955 3.08544 -0.105647 -0.0554694 2.84606 -0.135562 0.110155 0.130401 -3.06366 2.95462
0.591704 0.65596 -0.615042 0.0626684 -2.97452 -0.0158663 0.39194 -3.00401 0.0510354 3.09175 -0.145508 3.12021 2.81429 -0.134206 2.92619 3.06304 -0.191953 1.02109 2.73866 0.0792516 0.123283 0.125232 3.0111 -3.07492 0.127434 3.01115 3.12076 3.05836 -0.0950458 -0.991451 -0 0 -2.56968 0.0711985 -2.20264 3.00337 0.230645 -2.19654 3.14129 0.0626681 -2.97452 -2.35045 0.306646 -3.01677 -3.10729 2.83135 -0.150055 -0.00367334 0.420408 -3.02702 -2.87674 0.062668 -2.97452 2.32422 3.07587 -0.12045 -0.0566077 2.84286 -0.150905 0.114733 0.758049 3.11486 -3.13667
0.592626 0.657301 -0.6199 0.0709757 -2.9524 -0.00550654 0.398898 -2.99164 0.0613895 3.09737 -0.162436 3.12335 2.82071 -0.151431 2.91533 3.06094 -0.223143 1.03482 2.70382 0.0593366 0.125685 0.130124 3.02398 -3.06749 0.123659 3.02389 3.12921 3.0543 -0.0968581 -0.996109 -0 0 -2.17796 0.108421 -2.23898 3.03839 0.198577 -2.23598 3.12327 0.0709756 -2.9524 -2.34281 0.322247 -2.9759 -3.10893 2.92977 -0.180334 -0.0199011 0.469255 -2.98842 -2.88717 0.0709756 -2.9524 2.3335 3.05448 -0.146031 -0.0579935 2.84166 -0.174635 0.11775 1.06857 3.05955 -3.02406
0.593152 0.65852 -0.625143 0.0750038 -2.93302 0.00390059 0.404159 -2.97369 0.0735349 3.10143 -0.184303 3.12645 2.82676 -0.173493 2.90328 3.05741 -0.259353 1.0461 2.67807 0.0448175 0.128691 0.133385 3.03213 -3.06033 0.112004 3.03199 3.13641 3.04845 -0.103128 -1.00087 -0 0 -1.78624 0.140837 -2.26718 3.06799 0.17126 -2.26624 3.10541 0.0750045 -2.93302 -2.33649 0.330478 -2.94073 -3.10853 3.05528 -0.206556 -0.0290144 0.508438 -2.95366 -2.90847 0.0750043 -2.93302 2.34273 3.03222 -0.169805 -0.0600255 2.84076 -0.1958 0.119333 1.15698 3.04282 -2.98737
